# xmcd
#
# Track frame offsets: 
#        150
#        25810
#        59103
#        87545
#        112153
#        134264
#        166259
#        193414
#        223650
#        247555
#        279055
#
# Disc length: 3991 seconds
#
# Revision: 0
# Processed by: cddbd v1.5.2PL0 Copyright (c) Steve Scherf et al.
# Submitted via: ExactAudioCopy v0.99pb5
#
DISCID=9f0f950b
DTITLE=Chembo Coniel - I things I wanted to do
DYEAR=2009
DGENRE=Jazz
TTITLE0=Buena gente
TTITLE1=Habana
TTITLE2=September Cha
TTITLE3=Tiene que ser asi
TTITLE4=Descarga Patato
TTITLE5=The sultan
TTITLE6=Things I wanted to do
TTITLE7=Isla verde
TTITLE8=Swing Street
TTITLE9=Fantasma
TTITLE10=Ori pa´Tommy Lopez
EXTD=
EXTT0=
EXTT1=
EXTT2=
EXTT3=
EXTT4=
EXTT5=
EXTT6=
EXTT7=
EXTT8=
EXTT9=
EXTT10=
PLAYORDER=
